<svg width="22" height="24" viewBox="0 0 22 24" fill="none" xmlns="http://www.w3.org/2000/svg">
<g id="instagram" clip-path="url(#clip0_137_29)">
<rect id="Rectangle 31" x="-3" y="-2" width="28" height="28" fill="white"/>
<path id="Vector" d="M11.0049 6.60928C7.88171 6.60928 5.36251 9.01396 5.36251 11.9952C5.36251 14.9765 7.88171 17.3812 11.0049 17.3812C14.1281 17.3812 16.6473 14.9765 16.6473 11.9952C16.6473 9.01396 14.1281 6.60928 11.0049 6.60928ZM11.0049 15.4968C8.98662 15.4968 7.33662 13.9265 7.33662 11.9952C7.33662 10.064 8.9817 8.49365 11.0049 8.49365C13.0281 8.49365 14.6732 10.064 14.6732 11.9952C14.6732 13.9265 13.0232 15.4968 11.0049 15.4968ZM18.1942 6.38896C18.1942 7.0874 17.6049 7.64522 16.8781 7.64522C16.1464 7.64522 15.5621 7.08271 15.5621 6.38896C15.5621 5.69521 16.1513 5.13271 16.8781 5.13271C17.6049 5.13271 18.1942 5.69521 18.1942 6.38896ZM21.9312 7.66397C21.8478 5.98115 21.4451 4.49053 20.1536 3.2624C18.867 2.03428 17.3054 1.6499 15.5424 1.56553C13.7254 1.46709 8.27947 1.46709 6.46251 1.56553C4.70448 1.64521 3.14287 2.02959 1.85136 3.25771C0.559842 4.48584 0.162074 5.97646 0.0736815 7.65928C-0.0294433 9.39365 -0.0294433 14.5921 0.0736815 16.3265C0.157164 18.0093 0.559842 19.4999 1.85136 20.728C3.14287 21.9562 4.69957 22.3405 6.46251 22.4249C8.27947 22.5233 13.7254 22.5233 15.5424 22.4249C17.3054 22.3452 18.867 21.9608 20.1536 20.728C21.4402 19.4999 21.8428 18.0093 21.9312 16.3265C22.0344 14.5921 22.0344 9.39834 21.9312 7.66397ZM19.5839 18.1874C19.2009 19.1062 18.4594 19.814 17.492 20.1843C16.0433 20.7327 12.6058 20.6062 11.0049 20.6062C9.40403 20.6062 5.96162 20.728 4.51787 20.1843C3.55537 19.8187 2.81386 19.1108 2.42591 18.1874C1.85136 16.8046 1.98395 13.5233 1.98395 11.9952C1.98395 10.4671 1.85627 7.18115 2.42591 5.80303C2.80895 4.88428 3.55046 4.17646 4.51787 3.80615C5.96653 3.25771 9.40403 3.38428 11.0049 3.38428C12.6058 3.38428 16.0482 3.2624 17.492 3.80615C18.4545 4.17178 19.196 4.87959 19.5839 5.80303C20.1585 7.18584 20.0259 10.4671 20.0259 11.9952C20.0259 13.5233 20.1585 16.8093 19.5839 18.1874Z" fill="black"/>
</g>
<defs>
<clipPath id="clip0_137_29">
<rect width="22" height="24" fill="white"/>
</clipPath>
</defs>
</svg>
