<svg width="28" height="28" viewBox="0 0 28 28" fill="none" xmlns="http://www.w3.org/2000/svg">
<g id="vk" clip-path="url(#clip0_137_19)">
<rect id="Rectangle 28" width="28" height="28" fill="white"/>
<path id="Vector" d="M26.5889 6.43672C26.7688 5.75312 26.5889 5.25 25.7236 5.25H22.8604C22.1313 5.25 21.7959 5.68203 21.616 6.16328C21.616 6.16328 20.1577 10.1609 18.0966 12.7531C17.4306 13.5023 17.1243 13.743 16.7597 13.743C16.5799 13.743 16.3028 13.5023 16.3028 12.8187V6.43672C16.3028 5.61641 16.0986 5.25 15.4959 5.25H10.9945C10.5375 5.25 10.2653 5.63281 10.2653 5.98828C10.2653 6.76484 11.2958 6.94531 11.4028 9.13281V13.8797C11.4028 14.9187 11.2375 15.1102 10.8729 15.1102C9.90071 15.1102 7.5382 11.0961 6.1382 6.50234C5.85626 5.61094 5.57917 5.25 4.84514 5.25H1.98195C1.16528 5.25 1 5.68203 1 6.16328C1 7.01641 1.97222 11.2547 5.5257 16.8547C7.89307 20.6773 11.2278 22.75 14.2611 22.75C16.084 22.75 16.3077 22.2906 16.3077 21.4977C16.3077 17.8445 16.1424 17.5 17.0563 17.5C17.4792 17.5 18.2084 17.7406 19.9097 19.5836C21.8542 21.7711 22.175 22.75 23.2639 22.75H26.1271C26.9438 22.75 27.357 22.2906 27.1188 21.3828C26.5743 19.4742 22.8945 15.5477 22.7292 15.2852C22.3063 14.6727 22.4278 14.3992 22.7292 13.8523C22.7341 13.8469 26.2292 8.3125 26.5889 6.43672Z" fill="black"/>
</g>
<defs>
<clipPath id="clip0_137_19">
<rect width="28" height="28" fill="white"/>
</clipPath>
</defs>
</svg>
